<svg id="visual" viewBox="0 0 900 600" width="900" height="600" xmlns="http://www.w3.org/2000/svg" xmlns:xlink="http://www.w3.org/1999/xlink" version="1.1"><rect x="0" y="0" width="900" height="600" fill="#009473"></rect><path d="M467 600L469 600L469 563L417 563L417 525L530 525L530 488L482 488L482 450L457 450L457 413L457 413L457 375L554 375L554 338L565 338L565 300L457 300L457 263L420 263L420 225L519 225L519 188L511 188L511 150L562 150L562 113L523 113L523 75L503 75L503 38L423 38L423 0L900 0L900 38L900 38L900 75L900 75L900 113L900 113L900 150L900 150L900 188L900 188L900 225L900 225L900 263L900 263L900 300L900 300L900 338L900 338L900 375L900 375L900 413L900 413L900 450L900 450L900 488L900 488L900 525L900 525L900 563L900 563L900 600L900 600Z" fill="#cccccc"></path><path d="M634 600L661 600L661 563L627 563L627 525L567 525L567 488L550 488L550 450L604 450L604 413L633 413L633 375L630 375L630 338L635 338L635 300L694 300L694 263L680 263L680 225L651 225L651 188L601 188L601 150L634 150L634 113L659 113L659 75L614 75L614 38L565 38L565 0L900 0L900 38L900 38L900 75L900 75L900 113L900 113L900 150L900 150L900 188L900 188L900 225L900 225L900 263L900 263L900 300L900 300L900 338L900 338L900 375L900 375L900 413L900 413L900 450L900 450L900 488L900 488L900 525L900 525L900 563L900 563L900 600L900 600Z" fill="#babab5"></path><path d="M781 600L792 600L792 563L739 563L739 525L696 525L696 488L748 488L748 450L705 450L705 413L688 413L688 375L749 375L749 338L688 338L688 300L709 300L709 263L700 263L700 225L744 225L744 188L776 188L776 150L731 150L731 113L723 113L723 75L783 75L783 38L760 38L760 0L900 0L900 38L900 38L900 75L900 75L900 113L900 113L900 150L900 150L900 188L900 188L900 225L900 225L900 263L900 263L900 300L900 300L900 338L900 338L900 375L900 375L900 413L900 413L900 450L900 450L900 488L900 488L900 525L900 525L900 563L900 563L900 600L900 600Z" fill="#a8a89e"></path></svg>