<svg id="visual" viewBox="0 0 960 540" width="960" height="540" xmlns="http://www.w3.org/2000/svg" xmlns:xlink="http://www.w3.org/1999/xlink" version="1.1"><path d="M921 540L911 491L882 442L873 393L853 344L892 295L911 245L873 196L844 147L882 98L921 49L873 0L960 0L960 49L960 98L960 147L960 196L960 245L960 295L960 344L960 393L960 442L960 491L960 540Z" fill="#ffffff"></path><path d="M873 540L882 491L844 442L825 393L815 344L863 295L863 245L825 196L767 147L805 98L882 49L825 0L874 0L922 49L883 98L845 147L874 196L912 245L893 295L854 344L874 393L883 442L912 491L922 540Z" fill="#f2f2f2"></path><path d="M604 540L642 491L594 442L661 393L613 344L613 295L527 245L690 196L642 147L517 98L652 49L700 0L826 0L883 49L806 98L768 147L826 196L864 245L864 295L816 344L826 393L845 442L883 491L874 540Z" fill="#e5e5e5"></path><path d="M489 540L594 491L537 442L585 393L469 344L517 295L469 245L604 196L527 147L402 98L546 49L652 0L701 0L653 49L518 98L643 147L691 196L528 245L614 295L614 344L662 393L595 442L643 491L605 540Z" fill="#d9d9d9"></path><path d="M441 540L527 491L498 442L556 393L393 344L450 295L383 245L537 196L450 147L335 98L498 49L604 0L653 0L547 49L403 98L528 147L605 196L470 245L518 295L470 344L586 393L538 442L595 491L490 540Z" fill="#cccccc"></path><path d="M249 540L345 491L364 442L441 393L335 344L277 295L316 245L364 196L364 147L210 98L393 49L412 0L605 0L499 49L336 98L451 147L538 196L384 245L451 295L394 344L557 393L499 442L528 491L442 540Z" fill="#c0c0c0"></path><path d="M220 540L268 491L297 442L412 393L268 344L249 295L229 245L297 196L287 147L181 98L316 49L316 0L413 0L394 49L211 98L365 147L365 196L317 245L278 295L336 344L442 393L365 442L346 491L250 540Z" fill="#b3b3b3"></path><path d="M143 540L162 491L220 442L364 393L220 344L210 295L143 245L249 196L239 147L143 98L277 49L229 0L317 0L317 49L182 98L288 147L298 196L230 245L250 295L269 344L413 393L298 442L269 491L221 540Z" fill="#a7a7a7"></path><path d="M0 540L0 491L0 442L0 393L0 344L0 295L0 245L0 196L0 147L0 98L0 49L0 0L230 0L278 49L144 98L240 147L250 196L144 245L211 295L221 344L365 393L221 442L163 491L144 540Z" fill="#9b9b9b"></path></svg>